# xmcd CD database file
#
# Track frame offsets:
#	150
#	30555
#	52677
#	75465
#
# Disc length: 1087 seconds
#
# Revision: 0
# Processed by: cddbd v1.5.1PL0 Copyright (c) Steve Scherf et al.
# Submitted via: CDex 1.51
#
DISCID=1d043d04
DTITLE=ELI+HIROSHI - MARCHIN'ROUND THE WORD
DYEAR=2000
DGENRE=Misc
TTITLE0=(Sun is mellow like a) Tangerine
TTITLE1=Trouble woman in love
TTITLE2=Arms of the black sky
TTITLE3=Tangerin (Reprise)
EXTD=YEAR: 2000
EXTT0=
EXTT1=
EXTT2=
EXTT3=
PLAYORDER=
